<svg id="flag" width="804" height="1280" viewBox="0 0 804 1280">
<g transform="translate(0,1280) scale(0.100000,-0.100000)"
fill="currentColor" stroke="none">
<path d="M220 12784 c-215 -78 -285 -320 -147 -506 27 -36 82 -74 143 -98 l49
-19 -83 -1 c-79 0 -85 -2 -114 -30 -25 -26 -29 -36 -24 -63 9 -46 37 -68 90
-74 l46 -6 0 -5993 0 -5994 135 0 135 0 0 3780 c0 2079 4 3780 8 3780 4 0 64
-25 132 -56 156 -71 432 -163 610 -203 537 -121 1116 -121 1830 -1 304 51 554
105 1110 241 918 224 1266 295 1730 351 160 19 235 22 555 22 330 1 387 -2
526 -22 407 -58 654 -131 1077 -319 18 -8 18 4410 0 4425 -28 22 -302 133
-448 180 -396 128 -786 180 -1255 169 -546 -13 -994 -88 -2035 -342 -908 -222
-1212 -283 -1700 -341 -179 -21 -683 -30 -860 -15 -257 21 -483 62 -710 127
-229 65 -590 211 -527 213 68 2 118 60 98 113 -17 45 -47 58 -136 58 l-80 0
59 25 c85 35 133 80 174 165 54 112 27 264 -62 353 -83 83 -224 118 -326 81z"/>
</g>
</svg>
